<svg width="18" height="16" viewBox="0 0 18 16" fill="none" xmlns="http://www.w3.org/2000/svg">
<path d="M3.18499 15.657C2.17857 15.657 1.48899 15.4706 1.11625 15.0978C0.743502 14.7251 0.557129 14.0355 0.557129 13.0291V9.7303C0.557129 8.38841 0.650315 7.17699 0.836688 6.09602C1.06034 4.97779 1.35853 3.97137 1.73128 3.07678C2.1413 2.14492 2.60723 1.23169 3.12908 0.337097L6.20423 1.2876C5.90604 2.40584 5.70103 3.4868 5.5892 4.53049C5.51465 5.57418 5.45874 6.69242 5.42147 7.8852C6.8379 7.8852 7.56476 8.66797 7.60203 10.2335L7.54612 13.0291C7.50884 14.0355 7.2852 14.7251 6.87517 15.0978C6.50243 15.4706 5.83149 15.657 4.86235 15.657H3.18499ZM13.0255 15.657C12.0563 15.657 11.3854 15.4706 11.0127 15.0978C10.6399 14.7251 10.4349 14.0355 10.3976 13.0291V9.7303C10.4349 8.38841 10.5467 7.17699 10.7331 6.09602C10.9567 4.97779 11.2549 3.97137 11.6277 3.07678C12.0004 2.14492 12.4664 1.23169 13.0255 0.337097L16.0447 1.2876C15.7465 2.40584 15.5415 3.4868 15.4297 4.53049C15.3552 5.57418 15.2992 6.69242 15.262 7.8852C16.6784 7.8852 17.4053 8.66797 17.4425 10.2335L17.3866 13.0291C17.3493 14.0355 17.1257 14.7251 16.7157 15.0978C16.3429 15.4706 15.672 15.657 14.7028 15.657H13.0255Z" fill="#008AEE"/>
</svg>
