<svg width="45" height="31" viewBox="0 0 45 31" fill="none" xmlns="http://www.w3.org/2000/svg">
<rect width="44.9822" height="31" rx="15.5" fill="#008AEE"/>
<path d="M29.7162 14.8372L23.1537 8.27469C22.9707 8.09164 22.7307 8 22.4909 8C22.2511 8 22.0111 8.09164 21.8281 8.27469L15.2656 14.8372C14.8995 15.2042 14.9178 15.7784 15.2839 16.1445C15.6509 16.5125 16.1874 16.5666 16.5547 16.1994L16.8748 15.879V22.0625C16.8748 22.5807 17.2941 23 17.8123 23H21.5623V19.25H23.4373V23H27.1873C27.7055 23 28.1248 22.5807 28.1248 22.0625V15.8973L28.4049 16.1773C28.771 16.5434 29.3304 16.5106 29.6977 16.1443C30.064 15.7784 30.0833 15.2033 29.7162 14.8372Z" fill="white"/>
</svg>
