<svg width="71" height="13" viewBox="0 0 71 13" fill="none" xmlns="http://www.w3.org/2000/svg">
<path d="M6.4914 1.96484C6.62866 1.65688 6.69733 1.50291 6.79291 1.45549C6.87592 1.41429 6.97339 1.41429 7.0564 1.45549C7.15198 1.50291 7.22064 1.65688 7.35791 1.96484L8.45127 4.41774C8.49188 4.50878 8.51216 4.5543 8.54359 4.58916C8.57133 4.62 8.60531 4.64467 8.6432 4.66156C8.68607 4.68065 8.73563 4.68588 8.83477 4.69634L11.5055 4.97822C11.8408 5.01361 12.0084 5.0313 12.0831 5.10755C12.1479 5.17377 12.178 5.26651 12.1645 5.3582C12.1489 5.46374 12.0237 5.57657 11.7733 5.8023L9.77824 7.60018C9.70424 7.66688 9.66718 7.70026 9.64376 7.74088C9.62301 7.77687 9.61003 7.81677 9.6057 7.85804C9.60078 7.9047 9.61109 7.95344 9.63179 8.05098L10.189 10.6781C10.259 11.0079 10.294 11.1728 10.2445 11.2673C10.2015 11.3495 10.1227 11.4068 10.0313 11.4223C9.92612 11.44 9.78008 11.3558 9.488 11.1874L7.16165 9.8456C7.07532 9.79579 7.03215 9.77095 6.98626 9.76116C6.94564 9.75257 6.90366 9.75257 6.86305 9.76116C6.81716 9.77095 6.77399 9.79579 6.68766 9.8456L4.36132 11.1874C4.06925 11.3558 3.92322 11.44 3.81803 11.4223C3.72665 11.4068 3.64777 11.3495 3.60482 11.2673C3.55537 11.1728 3.59035 11.0079 3.66031 10.6781L4.21752 8.05098C4.2382 7.95344 4.24854 7.9047 4.24363 7.85804C4.23929 7.81677 4.22632 7.77687 4.20557 7.74088C4.18212 7.70026 4.14509 7.66688 4.07106 7.60018L2.07608 5.8023C1.82562 5.57657 1.70039 5.46374 1.68482 5.3582C1.6713 5.26651 1.70142 5.17377 1.76625 5.10755C1.84089 5.0313 2.00854 5.01361 2.34384 4.97822L5.01456 4.69634C5.11369 4.68588 5.16325 4.68065 5.2061 4.66156C5.24402 4.64467 5.27797 4.62 5.30576 4.58916C5.33715 4.5543 5.35744 4.50878 5.39803 4.41774L6.4914 1.96484Z" fill="#008AEE" stroke="#008AEE" stroke-width="1.5" stroke-linecap="round" stroke-linejoin="round"/>
<path d="M20.9775 1.96484C21.1147 1.65688 21.1834 1.50291 21.279 1.45549C21.362 1.41429 21.4595 1.41429 21.5425 1.45549C21.6381 1.50291 21.7067 1.65688 21.844 1.96484L22.9374 4.41774C22.978 4.50878 22.9982 4.5543 23.0297 4.58916C23.0574 4.62 23.0914 4.64467 23.1293 4.66156C23.1721 4.68065 23.2217 4.68588 23.3209 4.69634L25.9916 4.97822C26.3269 5.01361 26.4945 5.0313 26.5692 5.10755C26.634 5.17377 26.6641 5.26651 26.6506 5.3582C26.635 5.46374 26.5098 5.57657 26.2593 5.8023L24.2643 7.60018C24.1903 7.66688 24.1533 7.70026 24.1298 7.74088C24.1091 7.77687 24.0961 7.81677 24.0918 7.85804C24.0869 7.9047 24.0972 7.95344 24.1179 8.05098L24.6751 10.6781C24.7451 11.0079 24.7801 11.1728 24.7306 11.2673C24.6876 11.3495 24.6088 11.4068 24.5174 11.4223C24.4122 11.44 24.2662 11.3558 23.9741 11.1874L21.6477 9.8456C21.5614 9.79579 21.5182 9.77095 21.4723 9.76116C21.4317 9.75257 21.3897 9.75257 21.3491 9.76116C21.3032 9.77095 21.2601 9.79579 21.1737 9.8456L18.8474 11.1874C18.5553 11.3558 18.4093 11.44 18.3041 11.4223C18.2127 11.4068 18.1339 11.3495 18.0909 11.2673C18.0415 11.1728 18.0764 11.0079 18.1464 10.6781L18.7036 8.05098C18.7243 7.95344 18.7346 7.9047 18.7297 7.85804C18.7254 7.81677 18.7124 7.77687 18.6917 7.74088C18.6682 7.70026 18.6312 7.66688 18.5571 7.60018L16.5622 5.8023C16.3117 5.57657 16.1865 5.46374 16.1709 5.3582C16.1574 5.26651 16.1875 5.17377 16.2523 5.10755C16.327 5.0313 16.4946 5.01361 16.8299 4.97822L19.5006 4.69634C19.5998 4.68588 19.6493 4.68065 19.6922 4.66156C19.7301 4.64467 19.7641 4.62 19.7918 4.58916C19.8232 4.5543 19.8435 4.50878 19.8841 4.41774L20.9775 1.96484Z" fill="#008AEE" stroke="#008AEE" stroke-width="1.5" stroke-linecap="round" stroke-linejoin="round"/>
<path d="M35.4633 1.96484C35.6006 1.65688 35.6692 1.50291 35.7648 1.45549C35.8478 1.41429 35.9453 1.41429 36.0283 1.45549C36.1239 1.50291 36.1926 1.65688 36.3298 1.96484L37.4232 4.41774C37.4638 4.50878 37.4841 4.5543 37.5155 4.58916C37.5433 4.62 37.5772 4.64467 37.6151 4.66156C37.658 4.68065 37.7076 4.68588 37.8067 4.69634L40.4774 4.97822C40.8127 5.01361 40.9803 5.0313 41.055 5.10755C41.1198 5.17377 41.1499 5.26651 41.1364 5.3582C41.1209 5.46374 40.9956 5.57657 40.7452 5.8023L38.7502 7.60018C38.6762 7.66688 38.6391 7.70026 38.6157 7.74088C38.5949 7.77687 38.582 7.81677 38.5776 7.85804C38.5727 7.9047 38.583 7.95344 38.6037 8.05098L39.1609 10.6781C39.2309 11.0079 39.2659 11.1728 39.2164 11.2673C39.1735 11.3495 39.0946 11.4068 39.0032 11.4223C38.898 11.44 38.752 11.3558 38.4599 11.1874L36.1336 9.8456C36.0472 9.79579 36.0041 9.77095 35.9582 9.76116C35.9176 9.75257 35.8756 9.75257 35.835 9.76116C35.7891 9.77095 35.7459 9.79579 35.6596 9.8456L33.3332 11.1874C33.0412 11.3558 32.8951 11.44 32.79 11.4223C32.6986 11.4068 32.6197 11.3495 32.5767 11.2673C32.5273 11.1728 32.5623 11.0079 32.6322 10.6781L33.1894 8.05098C33.2101 7.95344 33.2205 7.9047 33.2156 7.85804C33.2112 7.81677 33.1982 7.77687 33.1775 7.74088C33.154 7.70026 33.117 7.66688 33.043 7.60018L31.048 5.8023C30.7975 5.57657 30.6723 5.46374 30.6567 5.3582C30.6432 5.26651 30.6733 5.17377 30.7382 5.10755C30.8128 5.0313 30.9805 5.01361 31.3158 4.97822L33.9865 4.69634C34.0856 4.68588 34.1352 4.68065 34.178 4.66156C34.2159 4.64467 34.2499 4.62 34.2777 4.58916C34.3091 4.5543 34.3294 4.50878 34.37 4.41774L35.4633 1.96484Z" fill="#008AEE" stroke="#008AEE" stroke-width="1.5" stroke-linecap="round" stroke-linejoin="round"/>
<path d="M49.9494 1.96484C50.0867 1.65688 50.1553 1.50291 50.2509 1.45549C50.3339 1.41429 50.4314 1.41429 50.5144 1.45549C50.61 1.50291 50.6787 1.65688 50.8159 1.96484L51.9093 4.41774C51.9499 4.50878 51.9702 4.5543 52.0016 4.58916C52.0293 4.62 52.0633 4.64467 52.1012 4.66156C52.1441 4.68065 52.1936 4.68588 52.2928 4.69634L54.9635 4.97822C55.2988 5.01361 55.4664 5.0313 55.5411 5.10755C55.6059 5.17377 55.636 5.26651 55.6225 5.3582C55.607 5.46374 55.4817 5.57657 55.2313 5.8023L53.2362 7.60018C53.1623 7.66688 53.1252 7.70026 53.1018 7.74088C53.081 7.77687 53.068 7.81677 53.0637 7.85804C53.0588 7.9047 53.0691 7.95344 53.0898 8.05098L53.647 10.6781C53.717 11.0079 53.752 11.1728 53.7025 11.2673C53.6595 11.3495 53.5807 11.4068 53.4893 11.4223C53.3841 11.44 53.2381 11.3558 52.946 11.1874L50.6197 9.8456C50.5333 9.79579 50.4902 9.77095 50.4443 9.76116C50.4037 9.75257 50.3617 9.75257 50.3211 9.76116C50.2752 9.77095 50.232 9.79579 50.1457 9.8456L47.8193 11.1874C47.5273 11.3558 47.3812 11.44 47.276 11.4223C47.1847 11.4068 47.1058 11.3495 47.0628 11.2673C47.0134 11.1728 47.0484 11.0079 47.1183 10.6781L47.6755 8.05098C47.6962 7.95344 47.7066 7.9047 47.7016 7.85804C47.6973 7.81677 47.6843 7.77687 47.6636 7.74088C47.6401 7.70026 47.6031 7.66688 47.5291 7.60018L45.5341 5.8023C45.2836 5.57657 45.1584 5.46374 45.1428 5.3582C45.1293 5.26651 45.1594 5.17377 45.2243 5.10755C45.2989 5.0313 45.4665 5.01361 45.8019 4.97822L48.4726 4.69634C48.5717 4.68588 48.6213 4.68065 48.6641 4.66156C48.702 4.64467 48.736 4.62 48.7638 4.58916C48.7952 4.5543 48.8155 4.50878 48.856 4.41774L49.9494 1.96484Z" fill="#008AEE" stroke="#008AEE" stroke-width="1.5" stroke-linecap="round" stroke-linejoin="round"/>
<path d="M64.4355 1.96484C64.5728 1.65688 64.6414 1.50291 64.737 1.45549C64.82 1.41429 64.9175 1.41429 65.0005 1.45549C65.0961 1.50291 65.1647 1.65688 65.302 1.96484L66.3954 4.41774C66.436 4.50878 66.4563 4.5543 66.4877 4.58916C66.5154 4.62 66.5494 4.64467 66.5873 4.66156C66.6302 4.68065 66.6797 4.68588 66.7789 4.69634L69.4496 4.97822C69.7849 5.01361 69.9525 5.0313 70.0272 5.10755C70.092 5.17377 70.1221 5.26651 70.1086 5.3582C70.093 5.46374 69.9678 5.57657 69.7174 5.8023L67.7223 7.60018C67.6483 7.66688 67.6113 7.70026 67.5879 7.74088C67.5671 7.77687 67.5541 7.81677 67.5498 7.85804C67.5449 7.9047 67.5552 7.95344 67.5759 8.05098L68.1331 10.6781C68.2031 11.0079 68.2381 11.1728 68.1886 11.2673C68.1456 11.3495 68.0668 11.4068 67.9754 11.4223C67.8702 11.44 67.7242 11.3558 67.4321 11.1874L65.1057 9.8456C65.0194 9.79579 64.9762 9.77095 64.9304 9.76116C64.8897 9.75257 64.8478 9.75257 64.8071 9.76116C64.7612 9.77095 64.7181 9.79579 64.6318 9.8456L62.3054 11.1874C62.0133 11.3558 61.8673 11.44 61.7621 11.4223C61.6707 11.4068 61.5919 11.3495 61.5489 11.2673C61.4995 11.1728 61.5344 11.0079 61.6044 10.6781L62.1616 8.05098C62.1823 7.95344 62.1926 7.9047 62.1877 7.85804C62.1834 7.81677 62.1704 7.77687 62.1497 7.74088C62.1262 7.70026 62.0892 7.66688 62.0151 7.60018L60.0202 5.8023C59.7697 5.57657 59.6445 5.46374 59.6289 5.3582C59.6154 5.26651 59.6455 5.17377 59.7103 5.10755C59.785 5.0313 59.9526 5.01361 60.2879 4.97822L62.9587 4.69634C63.0578 4.68588 63.1073 4.68065 63.1502 4.66156C63.1881 4.64467 63.2221 4.62 63.2498 4.58916C63.2812 4.5543 63.3015 4.50878 63.3421 4.41774L64.4355 1.96484Z" fill="#008AEE" stroke="#008AEE" stroke-width="1.5" stroke-linecap="round" stroke-linejoin="round"/>
</svg>
