<svg width="347" height="106" viewBox="0 0 347 106" fill="none" xmlns="http://www.w3.org/2000/svg">
<g filter="url(#filter0_d_240_2041)">
<path d="M326.282 49.8247C326.282 65.8 313.332 78.7505 297.356 78.7505C281.381 78.7505 268.431 65.8 268.431 49.8247C268.431 33.8494 281.381 20.8989 297.356 20.8989C313.332 20.8989 326.282 33.8494 326.282 49.8247Z" fill="#008AEE"/>
<path d="M298.166 85.6147C297.74 86.1102 296.973 86.1102 296.547 85.6147L289.67 77.6092C289.076 76.9176 289.568 75.8476 290.48 75.8476H304.233C305.145 75.8476 305.637 76.9176 305.042 77.6092L298.166 85.6147Z" fill="#008AEE"/>
</g>
<path fill-rule="evenodd" clip-rule="evenodd" d="M293.616 32.5631C294.823 32.3021 296.073 32.164 297.357 32.164C298.785 32.164 300.174 32.3355 301.504 32.6555V35.0597C302.783 35.4184 303.995 35.9387 305.114 36.5989L306.803 34.9078C309.048 36.3356 310.948 38.2577 312.351 40.5207L310.658 42.2165C311.295 43.3303 311.797 44.5305 312.139 45.797H314.535C314.836 47.0902 314.997 48.4391 314.997 49.8243C314.997 51.1538 314.849 52.448 314.571 53.6936H312.185C311.851 54.9805 311.351 56.2004 310.715 57.3321L312.411 59.0313C311.023 61.3046 309.135 63.2376 306.899 64.6795L305.213 62.9919C304.065 63.6797 302.821 64.219 301.504 64.5897V66.9929C300.174 67.3141 298.785 67.4853 297.357 67.4853C296.073 67.4853 294.823 67.3463 293.616 67.0853V64.7008C292.964 64.5365 292.33 64.3292 291.713 64.0838L294.457 61.3375C295.386 61.5704 296.357 61.6962 297.357 61.6962C303.905 61.6962 309.215 56.3814 309.215 49.8243C309.215 43.2677 303.905 37.9528 297.357 37.9528C290.807 37.9528 285.498 43.2677 285.498 49.8243C285.498 50.8903 285.642 51.9224 285.903 52.9047L283.177 55.6354C282.92 55.008 282.701 54.36 282.529 53.6936H280.143C279.865 52.448 279.717 51.1538 279.717 49.8243C279.717 48.4391 279.877 47.0902 280.178 45.797H282.573C282.944 44.4325 283.495 43.1434 284.206 41.9579L282.518 40.2703C283.958 38.0329 285.889 36.1425 288.16 34.7513L289.856 36.4505C291.024 35.7931 292.285 35.2822 293.616 34.9485V32.5631Z" fill="white"/>
<path fill-rule="evenodd" clip-rule="evenodd" d="M297.728 42.3769C298.442 42.3769 299.157 42.483 299.846 42.6953L295.313 47.2328L296.318 50.9859L300.067 51.9917L304.6 47.4545C304.776 48.0297 304.879 48.6225 304.909 49.2186L304.918 49.5766C304.918 51.3153 304.292 53.054 303.04 54.4254L302.813 54.6635C300.928 56.5502 298.257 57.1697 295.855 56.5228L295.59 56.4457L286.457 65.5791C284.672 64.4691 283.139 62.9923 281.961 61.2542L281.714 60.8778L290.865 51.7153C290.126 49.3321 290.65 46.6406 292.442 44.6963L292.646 44.4834C293.971 43.1571 295.685 42.4574 297.421 42.3834L297.728 42.3769Z" fill="white"/>
<defs>
<filter id="filter0_d_240_2041" x="248.431" y="0.898865" width="97.8516" height="105.087" filterUnits="userSpaceOnUse" color-interpolation-filters="sRGB">
<feFlood flood-opacity="0" result="BackgroundImageFix"/>
<feColorMatrix in="SourceAlpha" type="matrix" values="0 0 0 0 0 0 0 0 0 0 0 0 0 0 0 0 0 0 127 0" result="hardAlpha"/>
<feOffset/>
<feGaussianBlur stdDeviation="10"/>
<feColorMatrix type="matrix" values="0 0 0 0 0 0 0 0 0 0 0 0 0 0 0 0 0 0 0.3 0"/>
<feBlend mode="normal" in2="BackgroundImageFix" result="effect1_dropShadow_240_2041"/>
<feBlend mode="normal" in="SourceGraphic" in2="effect1_dropShadow_240_2041" result="shape"/>
</filter>
</defs>
</svg>
