<svg width="18" height="16" viewBox="0 0 18 16" fill="none" xmlns="http://www.w3.org/2000/svg">
<path d="M3.18523 15.657C2.17882 15.657 1.48924 15.4706 1.11649 15.0978C0.743746 14.7251 0.557373 14.0355 0.557373 13.0291V9.7303C0.557373 8.38841 0.65056 7.17699 0.836933 6.09602C1.06058 4.97779 1.35878 3.97137 1.73152 3.07678C2.14154 2.14492 2.60748 1.23169 3.12932 0.337097L6.20448 1.2876C5.90628 2.40584 5.70127 3.4868 5.58945 4.53049C5.5149 5.57418 5.45898 6.69242 5.42171 7.8852C6.83814 7.8852 7.565 8.66797 7.60227 10.2335L7.54636 13.0291C7.50909 14.0355 7.28544 14.7251 6.87542 15.0978C6.50267 15.4706 5.83173 15.657 4.86259 15.657H3.18523ZM13.0257 15.657C12.0566 15.657 11.3856 15.4706 11.0129 15.0978C10.6402 14.7251 10.4351 14.0355 10.3979 13.0291V9.7303C10.4351 8.38841 10.547 7.17699 10.7333 6.09602C10.957 4.97779 11.2552 3.97137 11.6279 3.07678C12.0007 2.14492 12.4666 1.23169 13.0257 0.337097L16.045 1.2876C15.7468 2.40584 15.5418 3.4868 15.4299 4.53049C15.3554 5.57418 15.2995 6.69242 15.2622 7.8852C16.6786 7.8852 17.4055 8.66797 17.4428 10.2335L17.3869 13.0291C17.3496 14.0355 17.1259 14.7251 16.7159 15.0978C16.3432 15.4706 15.6722 15.657 14.7031 15.657H13.0257Z" fill="#008AEE"/>
</svg>
