<svg width="22" height="21" viewBox="0 0 22 21" fill="none" xmlns="http://www.w3.org/2000/svg">
<path d="M3.52418 20.2731C2.23022 20.2731 1.34362 20.0335 0.864375 19.5542C0.38513 19.075 0.145508 18.1884 0.145508 16.8944V12.6531C0.145508 10.9278 0.265319 9.37026 0.504941 7.98044C0.792489 6.54271 1.17588 5.24875 1.65513 4.09856C2.1823 2.90045 2.78136 1.7263 3.4523 0.576111L7.40607 1.79819C7.02267 3.23592 6.75909 4.62573 6.61532 5.96762C6.51947 7.3095 6.44758 8.74724 6.39966 10.2808C8.22079 10.2808 9.15531 11.2872 9.20324 13.3001L9.13135 16.8944C9.08343 18.1884 8.79588 19.075 8.26871 19.5542C7.78947 20.0335 6.92682 20.2731 5.68079 20.2731H3.52418ZM16.1763 20.2731C14.9302 20.2731 14.0676 20.0335 13.5883 19.5542C13.1091 19.075 12.8455 18.1884 12.7976 16.8944V12.6531C12.8455 10.9278 12.9893 9.37026 13.2289 7.98044C13.5164 6.54271 13.8998 5.24875 14.3791 4.09856C14.8583 2.90045 15.4574 1.7263 16.1763 0.576111L20.0581 1.79819C19.6747 3.23592 19.4112 4.62573 19.2674 5.96762C19.1715 7.3095 19.0996 8.74724 19.0517 10.2808C20.8729 10.2808 21.8074 11.2872 21.8553 13.3001L21.7834 16.8944C21.7355 18.1884 21.4479 19.075 20.9208 19.5542C20.4415 20.0335 19.5789 20.2731 18.3329 20.2731H16.1763Z" fill="#008AEE"/>
</svg>
