<svg width="22" height="21" viewBox="0 0 22 21" fill="none" xmlns="http://www.w3.org/2000/svg">
<path d="M3.52394 20.2731C2.22998 20.2731 1.34338 20.0335 0.864131 19.5542C0.384886 19.075 0.145264 18.1884 0.145264 16.8944V12.6531C0.145264 10.9278 0.265075 9.37026 0.504697 7.98044C0.792244 6.54271 1.17564 5.24875 1.65489 4.09856C2.18205 2.90045 2.78111 1.7263 3.45205 0.576111L7.40583 1.79819C7.02243 3.23592 6.75884 4.62573 6.61507 5.96762C6.51922 7.3095 6.44734 8.74724 6.39941 10.2808C8.22054 10.2808 9.15507 11.2872 9.20299 13.3001L9.13111 16.8944C9.08318 18.1884 8.79564 19.075 8.26847 19.5542C7.78922 20.0335 6.92658 20.2731 5.68054 20.2731H3.52394ZM16.176 20.2731C14.93 20.2731 14.0673 20.0335 13.5881 19.5542C13.1088 19.075 12.8453 18.1884 12.7973 16.8944V12.6531C12.8453 10.9278 12.989 9.37026 13.2287 7.98044C13.5162 6.54271 13.8996 5.24875 14.3788 4.09856C14.8581 2.90045 15.4571 1.7263 16.176 0.576111L20.0579 1.79819C19.6745 3.23592 19.4109 4.62573 19.2671 5.96762C19.1713 7.3095 19.0994 8.74724 19.0515 10.2808C20.8726 10.2808 21.8071 11.2872 21.8551 13.3001L21.7832 16.8944C21.7353 18.1884 21.4477 19.075 20.9205 19.5542C20.4413 20.0335 19.5786 20.2731 18.3326 20.2731H16.176Z" fill="#008AEE"/>
</svg>
