<svg width="71" height="13" viewBox="0 0 71 13" fill="none" xmlns="http://www.w3.org/2000/svg">
<path d="M6.49189 1.96484C6.62915 1.65688 6.69781 1.50291 6.79339 1.45549C6.8764 1.41429 6.97388 1.41429 7.05689 1.45549C7.15247 1.50291 7.22113 1.65688 7.3584 1.96484L8.45175 4.41774C8.49237 4.50878 8.51265 4.5543 8.54407 4.58916C8.57182 4.62 8.6058 4.64467 8.64369 4.66156C8.68655 4.68065 8.73612 4.68588 8.83526 4.69634L11.506 4.97822C11.8413 5.01361 12.0089 5.0313 12.0836 5.10755C12.1484 5.17377 12.1785 5.26651 12.165 5.3582C12.1494 5.46374 12.0242 5.57657 11.7738 5.8023L9.77873 7.60018C9.70473 7.66688 9.66767 7.70026 9.64425 7.74088C9.6235 7.77687 9.61051 7.81677 9.60619 7.85804C9.60126 7.9047 9.61158 7.95344 9.63228 8.05098L10.1895 10.6781C10.2595 11.0079 10.2945 11.1728 10.245 11.2673C10.202 11.3495 10.1232 11.4068 10.0318 11.4223C9.9266 11.44 9.78057 11.3558 9.48849 11.1874L7.16214 9.8456C7.07581 9.79579 7.03264 9.77095 6.98675 9.76116C6.94613 9.75257 6.90415 9.75257 6.86354 9.76116C6.81764 9.77095 6.77448 9.79579 6.68815 9.8456L4.36181 11.1874C4.06974 11.3558 3.92371 11.44 3.81852 11.4223C3.72714 11.4068 3.64826 11.3495 3.60531 11.2673C3.55586 11.1728 3.59084 11.0079 3.6608 10.6781L4.21801 8.05098C4.23869 7.95344 4.24903 7.9047 4.24412 7.85804C4.23977 7.81677 4.22681 7.77687 4.20606 7.74088C4.1826 7.70026 4.14558 7.66688 4.07154 7.60018L2.07656 5.8023C1.82611 5.57657 1.70087 5.46374 1.6853 5.3582C1.67178 5.26651 1.70191 5.17377 1.76674 5.10755C1.84138 5.0313 2.00903 5.01361 2.34433 4.97822L5.01505 4.69634C5.11418 4.68588 5.16374 4.68065 5.20659 4.66156C5.24451 4.64467 5.27846 4.62 5.30625 4.58916C5.33764 4.5543 5.35793 4.50878 5.39852 4.41774L6.49189 1.96484Z" fill="#008AEE" stroke="#008AEE" stroke-width="1.5" stroke-linecap="round" stroke-linejoin="round"/>
<path d="M20.9777 1.96484C21.115 1.65688 21.1837 1.50291 21.2792 1.45549C21.3622 1.41429 21.4597 1.41429 21.5427 1.45549C21.6383 1.50291 21.707 1.65688 21.8442 1.96484L22.9376 4.41774C22.9782 4.50878 22.9985 4.5543 23.0299 4.58916C23.0577 4.62 23.0916 4.64467 23.1295 4.66156C23.1724 4.68065 23.222 4.68588 23.3211 4.69634L25.9918 4.97822C26.3271 5.01361 26.4947 5.0313 26.5694 5.10755C26.6342 5.17377 26.6643 5.26651 26.6508 5.3582C26.6353 5.46374 26.51 5.57657 26.2596 5.8023L24.2646 7.60018C24.1906 7.66688 24.1535 7.70026 24.1301 7.74088C24.1093 7.77687 24.0964 7.81677 24.092 7.85804C24.0871 7.9047 24.0974 7.95344 24.1181 8.05098L24.6753 10.6781C24.7453 11.0079 24.7803 11.1728 24.7308 11.2673C24.6879 11.3495 24.609 11.4068 24.5176 11.4223C24.4124 11.44 24.2664 11.3558 23.9743 11.1874L21.648 9.8456C21.5616 9.79579 21.5185 9.77095 21.4726 9.76116C21.432 9.75257 21.39 9.75257 21.3494 9.76116C21.3035 9.77095 21.2603 9.79579 21.174 9.8456L18.8476 11.1874C18.5556 11.3558 18.4095 11.44 18.3044 11.4223C18.213 11.4068 18.1341 11.3495 18.0911 11.2673C18.0417 11.1728 18.0767 11.0079 18.1466 10.6781L18.7038 8.05098C18.7245 7.95344 18.7349 7.9047 18.73 7.85804C18.7256 7.81677 18.7126 7.77687 18.6919 7.74088C18.6684 7.70026 18.6314 7.66688 18.5574 7.60018L16.5624 5.8023C16.3119 5.57657 16.1867 5.46374 16.1711 5.3582C16.1576 5.26651 16.1878 5.17377 16.2526 5.10755C16.3272 5.0313 16.4949 5.01361 16.8302 4.97822L19.5009 4.69634C19.6 4.68588 19.6496 4.68065 19.6924 4.66156C19.7303 4.64467 19.7643 4.62 19.7921 4.58916C19.8235 4.5543 19.8438 4.50878 19.8844 4.41774L20.9777 1.96484Z" fill="#008AEE" stroke="#008AEE" stroke-width="1.5" stroke-linecap="round" stroke-linejoin="round"/>
<path d="M35.4641 1.96484C35.6013 1.65688 35.67 1.50291 35.7656 1.45549C35.8486 1.41429 35.946 1.41429 36.0291 1.45549C36.1246 1.50291 36.1933 1.65688 36.3306 1.96484L37.4239 4.41774C37.4645 4.50878 37.4848 4.5543 37.5162 4.58916C37.544 4.62 37.578 4.64467 37.6159 4.66156C37.6587 4.68065 37.7083 4.68588 37.8074 4.69634L40.4782 4.97822C40.8135 5.01361 40.9811 5.0313 41.0557 5.10755C41.1205 5.17377 41.1507 5.26651 41.1371 5.3582C41.1216 5.46374 40.9964 5.57657 40.7459 5.8023L38.7509 7.60018C38.6769 7.66688 38.6398 7.70026 38.6164 7.74088C38.5957 7.77687 38.5827 7.81677 38.5784 7.85804C38.5734 7.9047 38.5837 7.95344 38.6044 8.05098L39.1617 10.6781C39.2316 11.0079 39.2666 11.1728 39.2172 11.2673C39.1742 11.3495 39.0953 11.4068 39.004 11.4223C38.8988 11.44 38.7527 11.3558 38.4607 11.1874L36.1343 9.8456C36.048 9.79579 36.0048 9.77095 35.9589 9.76116C35.9183 9.75257 35.8763 9.75257 35.8357 9.76116C35.7898 9.77095 35.7466 9.79579 35.6603 9.8456L33.334 11.1874C33.0419 11.3558 32.8959 11.44 32.7907 11.4223C32.6993 11.4068 32.6204 11.3495 32.5775 11.2673C32.528 11.1728 32.563 11.0079 32.633 10.6781L33.1902 8.05098C33.2109 7.95344 33.2212 7.9047 33.2163 7.85804C33.2119 7.81677 33.199 7.77687 33.1782 7.74088C33.1548 7.70026 33.1178 7.66688 33.0437 7.60018L31.0487 5.8023C30.7983 5.57657 30.673 5.46374 30.6575 5.3582C30.644 5.26651 30.6741 5.17377 30.7389 5.10755C30.8135 5.0313 30.9812 5.01361 31.3165 4.97822L33.9872 4.69634C34.0863 4.68588 34.1359 4.68065 34.1788 4.66156C34.2167 4.64467 34.2506 4.62 34.2784 4.58916C34.3098 4.5543 34.3301 4.50878 34.3707 4.41774L35.4641 1.96484Z" fill="#008AEE" stroke="#008AEE" stroke-width="1.5" stroke-linecap="round" stroke-linejoin="round"/>
<path d="M49.9499 1.96484C50.0872 1.65688 50.1558 1.50291 50.2514 1.45549C50.3344 1.41429 50.4319 1.41429 50.5149 1.45549C50.6105 1.50291 50.6791 1.65688 50.8164 1.96484L51.9098 4.41774C51.9504 4.50878 51.9707 4.5543 52.0021 4.58916C52.0298 4.62 52.0638 4.64467 52.1017 4.66156C52.1446 4.68065 52.1941 4.68588 52.2933 4.69634L54.964 4.97822C55.2993 5.01361 55.4669 5.0313 55.5416 5.10755C55.6064 5.17377 55.6365 5.26651 55.623 5.3582C55.6074 5.46374 55.4822 5.57657 55.2318 5.8023L53.2367 7.60018C53.1627 7.66688 53.1257 7.70026 53.1023 7.74088C53.0815 7.77687 53.0685 7.81677 53.0642 7.85804C53.0593 7.9047 53.0696 7.95344 53.0903 8.05098L53.6475 10.6781C53.7175 11.0079 53.7525 11.1728 53.703 11.2673C53.66 11.3495 53.5812 11.4068 53.4898 11.4223C53.3846 11.44 53.2386 11.3558 52.9465 11.1874L50.6201 9.8456C50.5338 9.79579 50.4906 9.77095 50.4448 9.76116C50.4041 9.75257 50.3622 9.75257 50.3215 9.76116C50.2757 9.77095 50.2325 9.79579 50.1462 9.8456L47.8198 11.1874C47.5277 11.3558 47.3817 11.44 47.2765 11.4223C47.1851 11.4068 47.1063 11.3495 47.0633 11.2673C47.0139 11.1728 47.0488 11.0079 47.1188 10.6781L47.676 8.05098C47.6967 7.95344 47.707 7.9047 47.7021 7.85804C47.6978 7.81677 47.6848 7.77687 47.6641 7.74088C47.6406 7.70026 47.6036 7.66688 47.5296 7.60018L45.5346 5.8023C45.2841 5.57657 45.1589 5.46374 45.1433 5.3582C45.1298 5.26651 45.1599 5.17377 45.2247 5.10755C45.2994 5.0313 45.467 5.01361 45.8023 4.97822L48.4731 4.69634C48.5722 4.68588 48.6217 4.68065 48.6646 4.66156C48.7025 4.64467 48.7365 4.62 48.7643 4.58916C48.7956 4.5543 48.8159 4.50878 48.8565 4.41774L49.9499 1.96484Z" fill="#008AEE" stroke="#008AEE" stroke-width="1.5" stroke-linecap="round" stroke-linejoin="round"/>
<path d="M64.4357 1.96484C64.573 1.65688 64.6417 1.50291 64.7372 1.45549C64.8203 1.41429 64.9177 1.41429 65.0007 1.45549C65.0963 1.50291 65.165 1.65688 65.3022 1.96484L66.3956 4.41774C66.4362 4.50878 66.4565 4.5543 66.4879 4.58916C66.5157 4.62 66.5496 4.64467 66.5875 4.66156C66.6304 4.68065 66.68 4.68588 66.7791 4.69634L69.4498 4.97822C69.7851 5.01361 69.9528 5.0313 70.0274 5.10755C70.0922 5.17377 70.1223 5.26651 70.1088 5.3582C70.0933 5.46374 69.9681 5.57657 69.7176 5.8023L67.7226 7.60018C67.6486 7.66688 67.6115 7.70026 67.5881 7.74088C67.5673 7.77687 67.5544 7.81677 67.55 7.85804C67.5451 7.9047 67.5554 7.95344 67.5761 8.05098L68.1334 10.6781C68.2033 11.0079 68.2383 11.1728 68.1889 11.2673C68.1459 11.3495 68.067 11.4068 67.9756 11.4223C67.8705 11.44 67.7244 11.3558 67.4323 11.1874L65.106 9.8456C65.0197 9.79579 64.9765 9.77095 64.9306 9.76116C64.89 9.75257 64.848 9.75257 64.8074 9.76116C64.7615 9.77095 64.7183 9.79579 64.632 9.8456L62.3057 11.1874C62.0136 11.3558 61.8676 11.44 61.7624 11.4223C61.671 11.4068 61.5921 11.3495 61.5492 11.2673C61.4997 11.1728 61.5347 11.0079 61.6046 10.6781L62.1619 8.05098C62.1825 7.95344 62.1929 7.9047 62.188 7.85804C62.1836 7.81677 62.1707 7.77687 62.1499 7.74088C62.1265 7.70026 62.0894 7.66688 62.0154 7.60018L60.0204 5.8023C59.77 5.57657 59.6447 5.46374 59.6292 5.3582C59.6156 5.26651 59.6458 5.17377 59.7106 5.10755C59.7852 5.0313 59.9529 5.01361 60.2882 4.97822L62.9589 4.69634C63.058 4.68588 63.1076 4.68065 63.1504 4.66156C63.1884 4.64467 63.2223 4.62 63.2501 4.58916C63.2815 4.5543 63.3018 4.50878 63.3424 4.41774L64.4357 1.96484Z" fill="#008AEE" stroke="#008AEE" stroke-width="1.5" stroke-linecap="round" stroke-linejoin="round"/>
</svg>
