<svg width="98" height="32" viewBox="0 0 98 32" fill="none" xmlns="http://www.w3.org/2000/svg">
<path fill-rule="evenodd" clip-rule="evenodd" d="M8.91016 23.9308C9.28163 24.1469 9.51289 24.5375 9.97541 25.319L10.5717 26.3265C11.1032 27.2244 12.4309 27.2244 12.9625 26.3265L13.5588 25.319C14.0212 24.5375 14.2525 24.1468 14.624 23.9308C14.9955 23.7147 15.4631 23.7067 16.3985 23.6907C17.7795 23.6668 18.6455 23.5822 19.3718 23.2813C20.7195 22.7231 21.7902 21.6525 22.3484 20.3047C22.7671 19.2941 22.7671 18.0127 22.7671 15.45V14.35C22.7671 10.7492 22.7671 8.94883 21.9566 7.62626C21.5031 6.8862 20.8809 6.26399 20.1408 5.81048C18.8182 5 17.0178 5 13.4171 5H10.1171C6.51632 5 4.71592 5 3.39335 5.81048C2.65329 6.26399 2.03108 6.8862 1.57757 7.62626C0.76709 8.94883 0.76709 10.7492 0.76709 14.35V15.45C0.76709 18.0127 0.76709 19.2941 1.18575 20.3047C1.74397 21.6525 2.81467 22.7231 4.16233 23.2813C4.88867 23.5822 5.75473 23.6668 7.13563 23.6907C8.071 23.7067 8.53869 23.7147 8.91016 23.9308ZM21.0187 8.20103C20.6559 7.60894 20.1581 7.11118 19.5661 6.7484C19.1067 6.46686 18.5141 6.29003 17.5291 6.19637C16.5278 6.10116 15.2388 6.1 13.4171 6.1H10.1171C8.2954 6.1 7.00638 6.10116 6.00501 6.19637C5.02002 6.29003 4.4275 6.46686 3.9681 6.74838C3.37606 7.11119 2.87828 7.60896 2.51547 8.20101C2.23395 8.66041 2.05712 9.25293 1.96346 10.2379C1.86825 11.2393 1.86709 12.5283 1.86709 14.35V15.45C1.86709 16.7464 1.86769 17.6636 1.91687 18.3845C1.96538 19.0955 2.05746 19.5348 2.20201 19.8838C2.64857 20.9619 3.50512 21.8184 4.58327 22.2651C5.09744 22.478 5.77357 22.5669 7.15464 22.5908L7.19789 22.5916C7.62832 22.5989 8.02345 22.6057 8.35536 22.6424C8.7188 22.6826 9.09569 22.7662 9.46317 22.9799C9.82687 23.1915 10.0839 23.4718 10.2976 23.765C10.4911 24.0305 10.6878 24.363 10.9002 24.7218L11.5183 25.7661C11.5672 25.8487 11.6525 25.8999 11.7671 25.8999C11.8816 25.8999 11.9669 25.8488 12.0158 25.7662M12.0158 25.7662L12.6338 24.7221C12.8462 24.3632 13.0429 24.0306 13.2366 23.7649C13.4503 23.4717 13.7072 23.1915 14.071 22.9799C14.4385 22.7662 14.8153 22.6826 15.1788 22.6424C15.5107 22.6057 15.9058 22.5989 16.3363 22.5916L16.3795 22.5908C17.7606 22.5669 18.4367 22.478 18.9509 22.2651C20.0291 21.8185 20.8856 20.962 21.3322 19.8838C21.4767 19.5348 21.5688 19.0955 21.6173 18.3845C21.6665 17.6636 21.6671 16.7464 21.6671 15.45V14.35C21.6671 12.5283 21.6659 11.2393 21.5707 10.2379C21.4771 9.25294 21.3002 8.66043 21.0187 8.20103M3.39449 5.81235L3.39335 5.81048L3.39449 5.81235Z" fill="white"/>
<path d="M6.54209 12.7C6.54209 12.2444 6.91146 11.875 7.36709 11.875H16.1671C16.6227 11.875 16.9921 12.2444 16.9921 12.7C16.9921 13.1556 16.6227 13.525 16.1671 13.525H7.36709C6.91146 13.525 6.54209 13.1556 6.54209 12.7Z" fill="white"/>
<path d="M6.54209 16.55C6.54209 16.0944 6.91146 15.725 7.36709 15.725H13.4171C13.8727 15.725 14.2421 16.0944 14.2421 16.55C14.2421 17.0056 13.8727 17.375 13.4171 17.375H7.36709C6.91146 17.375 6.54209 17.0056 6.54209 16.55Z" fill="white"/>
<path d="M46.4575 4.88208C45.341 4.88208 44.436 5.78711 44.436 6.90353C44.436 8.01995 45.341 8.92499 46.4575 8.92499H51.0779C52.1944 8.92499 53.0994 8.01995 53.0994 6.90353C53.0994 5.78711 52.1944 4.88208 51.0779 4.88208H46.4575Z" fill="white"/>
<path fill-rule="evenodd" clip-rule="evenodd" d="M41.4483 13.4173C40.3628 13.5744 39.7662 13.8701 39.3781 14.3673C38.9899 14.8644 38.8476 15.5149 38.9586 16.6061C39.0711 17.7124 39.4292 19.1509 39.9291 21.1507C40.2477 22.4249 40.4752 23.3309 40.7351 24.0133C40.9896 24.6811 41.2535 25.0732 41.6098 25.3513C41.966 25.6295 42.4104 25.7904 43.12 25.8753C43.845 25.962 44.7791 25.963 46.0926 25.963H51.4416C52.7551 25.963 53.6892 25.962 54.4142 25.8753C55.1238 25.7904 55.5682 25.6295 55.9244 25.3513C56.2807 25.0732 56.5446 24.6811 56.799 24.0133C57.059 23.3309 57.2865 22.4249 57.6051 21.1507C58.105 19.1509 58.4631 17.7124 58.5756 16.6061C58.6865 15.5149 58.5443 14.8644 58.1561 14.3673C57.7679 13.8701 57.1714 13.5743 56.0858 13.4173C54.9853 13.2581 53.5028 13.2567 51.4416 13.2567H46.0926C44.0313 13.2567 42.5489 13.2581 41.4483 13.4173ZM46.0432 12.1016H51.491C53.4922 12.1015 55.0583 12.1015 56.2512 12.2741C57.4689 12.4502 58.4141 12.8208 59.0666 13.6564C59.719 14.492 59.8492 15.4989 59.7248 16.7229C59.6029 17.9219 59.2231 19.4412 58.7378 21.3825L58.7165 21.4676C58.4091 22.6972 58.1658 23.6703 57.8785 24.4245C57.5827 25.2008 57.2191 25.806 56.6353 26.2618C56.0515 26.7176 55.3762 26.9236 54.5514 27.0222C53.7498 27.1181 52.7467 27.1181 51.4791 27.1181H46.0551C44.7875 27.1181 43.7843 27.1181 42.9828 27.0222C42.158 26.9236 41.4826 26.7176 40.8989 26.2618C40.3151 25.806 39.9515 25.2008 39.6557 24.4245C39.3683 23.6701 39.125 22.6969 38.8176 21.467L38.7965 21.3829C38.3112 19.4415 37.9313 17.922 37.8094 16.7229C37.685 15.4989 37.8152 14.492 38.4676 13.6564C39.12 12.8208 40.0653 12.4502 41.2829 12.2741C42.4758 12.1015 44.042 12.1015 46.0432 12.1016Z" fill="white"/>
<path d="M52.9036 7.77253C53.0292 7.50928 53.0994 7.21462 53.0994 6.90353C53.0994 6.59391 53.0297 6.30053 52.9053 6.03822C53.6948 6.04395 54.3103 6.0802 54.8596 6.29489C55.5159 6.55141 56.0867 6.98746 56.5069 7.55319C56.9308 8.12391 57.1297 8.85544 57.4036 9.8623L57.4572 10.0591L58.0494 13.4817C57.5773 13.156 56.9686 12.9625 56.1812 12.8475L55.7639 10.4356C55.4361 9.23462 55.3171 8.85721 55.1159 8.58624C54.8897 8.28161 54.5822 8.04681 54.2289 7.90869C53.975 7.80946 53.6682 7.78026 52.9036 7.77253Z" fill="white"/>
<path d="M44.6301 6.03822C44.5056 6.30053 44.436 6.59391 44.436 6.90353C44.436 7.21462 44.5063 7.50929 44.6318 7.77254C43.8673 7.78027 43.5605 7.80946 43.3066 7.90869C42.9532 8.04681 42.6458 8.28161 42.4196 8.58624C42.2184 8.85721 42.0994 9.23462 41.7716 10.4356L41.3542 12.8474C40.567 12.9623 39.9582 13.1557 39.4862 13.4812L40.0783 10.0591L40.1319 9.86231C40.4058 8.85545 40.6047 8.12391 41.0286 7.55319C41.4487 6.98746 42.0196 6.55141 42.6759 6.29489C43.2252 6.08021 43.8405 6.04397 44.6301 6.03822Z" fill="white"/>
<path d="M45.0136 17.2996C45.0136 16.8211 44.6257 16.4332 44.1472 16.4332C43.6688 16.4332 43.2809 16.8211 43.2809 17.2996V21.9201C43.2809 22.3985 43.6688 22.7864 44.1472 22.7864C44.6257 22.7864 45.0136 22.3985 45.0136 21.9201V17.2996Z" fill="white"/>
<path d="M53.3882 16.4332C53.8666 16.4332 54.2545 16.8211 54.2545 17.2996V21.9201C54.2545 22.3985 53.8666 22.7864 53.3882 22.7864C52.9097 22.7864 52.5218 22.3985 52.5218 21.9201V17.2996C52.5218 16.8211 52.9097 16.4332 53.3882 16.4332Z" fill="white"/>
<path d="M49.634 17.2996C49.634 16.8211 49.2461 16.4332 48.7677 16.4332C48.2892 16.4332 47.9014 16.8211 47.9014 17.2996V21.9201C47.9014 22.3985 48.2892 22.7864 48.7677 22.7864C49.2461 22.7864 49.634 22.3985 49.634 21.9201V17.2996Z" fill="white"/>
<path fill-rule="evenodd" clip-rule="evenodd" d="M85.7671 8.64764C83.5678 6.08461 79.8928 5.29253 77.1373 7.63949C74.3817 9.98645 73.9938 13.9104 76.1577 16.6862C77.9569 18.994 83.4019 23.8615 85.1864 25.437C85.386 25.6132 85.4859 25.7013 85.6023 25.7359C85.7039 25.7661 85.8151 25.7661 85.9168 25.7359C86.0333 25.7013 86.133 25.6132 86.3327 25.437C88.1173 23.8615 93.5622 18.994 95.3614 16.6862C97.5254 13.9104 97.1847 9.96176 94.3818 7.63949C91.5789 5.31722 87.9664 6.08461 85.7671 8.64764Z" stroke="white" stroke-width="1.5" stroke-linecap="round" stroke-linejoin="round"/>
</svg>
