<svg width="82" height="14" viewBox="0 0 82 14" fill="none" xmlns="http://www.w3.org/2000/svg">
<path d="M7.27171 1.6483C7.43643 1.27875 7.51882 1.09398 7.63352 1.03708C7.73313 0.987641 7.8501 0.987641 7.94971 1.03708C8.06441 1.09398 8.1468 1.27875 8.31152 1.6483L9.62355 4.59178C9.67229 4.70103 9.69662 4.75565 9.73433 4.79748C9.76763 4.83449 9.8084 4.8641 9.85387 4.88436C9.90531 4.90727 9.96479 4.91355 10.0838 4.9261L13.2886 5.26436C13.691 5.30682 13.8921 5.32805 13.9817 5.41955C14.0595 5.49902 14.0956 5.6103 14.0794 5.72033C14.0608 5.84698 13.9105 5.98238 13.61 6.25325L11.2159 8.4107C11.1271 8.49075 11.0827 8.53081 11.0545 8.57955C11.0296 8.62273 11.0141 8.67062 11.0089 8.72014C11.003 8.77614 11.0153 8.83462 11.0402 8.95167L11.7089 12.1042C11.7928 12.5 11.8348 12.6979 11.7755 12.8113C11.7239 12.9099 11.6292 12.9786 11.5196 12.9972C11.3934 13.0185 11.2181 12.9175 10.8676 12.7154L8.07601 11.1052C7.97241 11.0454 7.92061 11.0156 7.86554 11.0039C7.8168 10.9936 7.76643 10.9936 7.71769 11.0039C7.66262 11.0156 7.61082 11.0454 7.50722 11.1052L4.71561 12.7154C4.36513 12.9175 4.1899 13.0185 4.06367 12.9972C3.95402 12.9786 3.85936 12.9099 3.80781 12.8113C3.74848 12.6979 3.79045 12.5 3.8744 12.1042L4.54306 8.95167C4.56787 8.83462 4.58028 8.77614 4.57439 8.72014C4.56918 8.67062 4.55361 8.62273 4.52871 8.57955C4.50057 8.53081 4.45614 8.49075 4.3673 8.4107L1.97332 6.25325C1.67277 5.98238 1.52249 5.84698 1.50381 5.72033C1.48759 5.6103 1.52374 5.49902 1.60154 5.41955C1.6911 5.32805 1.89228 5.30682 2.29464 5.26436L5.49951 4.9261C5.61846 4.91355 5.67793 4.90727 5.72936 4.88436C5.77486 4.8641 5.8156 4.83449 5.84894 4.79748C5.88661 4.75565 5.91096 4.70103 5.95967 4.59178L7.27171 1.6483Z" fill="#008AEE" stroke="#008AEE" stroke-width="1.5" stroke-linecap="round" stroke-linejoin="round"/>
<path d="M23.8547 1.6483C24.0194 1.27875 24.1018 1.09398 24.2165 1.03708C24.3161 0.987641 24.4331 0.987641 24.5327 1.03708C24.6474 1.09398 24.7298 1.27875 24.8945 1.6483L26.2066 4.59178C26.2553 4.70103 26.2796 4.75565 26.3173 4.79748C26.3506 4.83449 26.3914 4.8641 26.4369 4.88436C26.4883 4.90727 26.5478 4.91355 26.6668 4.9261L29.8716 5.26436C30.274 5.30682 30.4751 5.32805 30.5647 5.41955C30.6425 5.49902 30.6786 5.6103 30.6624 5.72033C30.6438 5.84698 30.4935 5.98238 30.193 6.25325L27.7989 8.4107C27.7101 8.49075 27.6657 8.53081 27.6376 8.57955C27.6127 8.62273 27.5971 8.67062 27.5919 8.72014C27.586 8.77614 27.5984 8.83462 27.6232 8.95167L28.2919 12.1042C28.3758 12.5 28.4178 12.6979 28.3585 12.8113C28.3069 12.9099 28.2122 12.9786 28.1026 12.9972C27.9764 13.0185 27.8011 12.9175 27.4506 12.7154L24.659 11.1052C24.5554 11.0454 24.5036 11.0156 24.4486 11.0039C24.3998 10.9936 24.3494 10.9936 24.3007 11.0039C24.2456 11.0156 24.1938 11.0454 24.0902 11.1052L21.2986 12.7154C20.9481 12.9175 20.7729 13.0185 20.6467 12.9972C20.537 12.9786 20.4424 12.9099 20.3908 12.8113C20.3315 12.6979 20.3735 12.5 20.4574 12.1042L21.1261 8.95167C21.1509 8.83462 21.1633 8.77614 21.1574 8.72014C21.1522 8.67062 21.1366 8.62273 21.1117 8.57955C21.0836 8.53081 21.0392 8.49075 20.9503 8.4107L18.5563 6.25325C18.2558 5.98238 18.1055 5.84698 18.0868 5.72033C18.0706 5.6103 18.1067 5.49902 18.1845 5.41955C18.2741 5.32805 18.4753 5.30682 18.8777 5.26436L22.0825 4.9261C22.2015 4.91355 22.2609 4.90727 22.3124 4.88436C22.3579 4.8641 22.3986 4.83449 22.4319 4.79748C22.4696 4.75565 22.494 4.70103 22.5427 4.59178L23.8547 1.6483Z" fill="#008AEE" stroke="#008AEE" stroke-width="1.5" stroke-linecap="round" stroke-linejoin="round"/>
<path d="M40.4382 1.6483C40.6029 1.27875 40.6853 1.09398 40.8 1.03708C40.8996 0.987641 41.0166 0.987641 41.1162 1.03708C41.2309 1.09398 41.3133 1.27875 41.478 1.6483L42.7901 4.59178C42.8388 4.70103 42.8631 4.75565 42.9008 4.79748C42.9341 4.83449 42.9749 4.8641 43.0204 4.88436C43.0718 4.90727 43.1313 4.91355 43.2503 4.9261L46.4551 5.26436C46.8575 5.30682 47.0586 5.32805 47.1482 5.41955C47.226 5.49902 47.2621 5.6103 47.2459 5.72033C47.2273 5.84698 47.077 5.98238 46.7765 6.25325L44.3824 8.4107C44.2936 8.49075 44.2492 8.53081 44.2211 8.57955C44.1961 8.62273 44.1806 8.67062 44.1754 8.72014C44.1695 8.77614 44.1818 8.83462 44.2067 8.95167L44.8754 12.1042C44.9593 12.5 45.0013 12.6979 44.942 12.8113C44.8904 12.9099 44.7957 12.9786 44.6861 12.9972C44.5599 13.0185 44.3846 12.9175 44.0341 12.7154L41.2425 11.1052C41.1389 11.0454 41.0871 11.0156 41.032 11.0039C40.9833 10.9936 40.9329 10.9936 40.8842 11.0039C40.8291 11.0156 40.7773 11.0454 40.6737 11.1052L37.8821 12.7154C37.5316 12.9175 37.3564 13.0185 37.2302 12.9972C37.1205 12.9786 37.0259 12.9099 36.9743 12.8113C36.915 12.6979 36.957 12.5 37.0409 12.1042L37.7096 8.95167C37.7344 8.83462 37.7468 8.77614 37.7409 8.72014C37.7357 8.67062 37.7201 8.62273 37.6952 8.57955C37.6671 8.53081 37.6226 8.49075 37.5338 8.4107L35.1398 6.25325C34.8393 5.98238 34.689 5.84698 34.6703 5.72033C34.6541 5.6103 34.6902 5.49902 34.768 5.41955C34.8576 5.32805 35.0588 5.30682 35.4611 5.26436L38.666 4.9261C38.785 4.91355 38.8444 4.90727 38.8959 4.88436C38.9414 4.8641 38.9821 4.83449 39.0154 4.79748C39.0531 4.75565 39.0775 4.70103 39.1262 4.59178L40.4382 1.6483Z" fill="#008AEE" stroke="#008AEE" stroke-width="1.5" stroke-linecap="round" stroke-linejoin="round"/>
<path d="M57.0212 1.6483C57.1859 1.27875 57.2683 1.09398 57.383 1.03708C57.4826 0.987641 57.5996 0.987641 57.6992 1.03708C57.8139 1.09398 57.8963 1.27875 58.061 1.6483L59.3731 4.59178C59.4218 4.70103 59.4461 4.75565 59.4838 4.79748C59.5171 4.83449 59.5579 4.8641 59.6034 4.88436C59.6548 4.90727 59.7143 4.91355 59.8333 4.9261L63.0381 5.26436C63.4405 5.30682 63.6416 5.32805 63.7312 5.41955C63.809 5.49902 63.8451 5.6103 63.8289 5.72033C63.8103 5.84698 63.66 5.98238 63.3595 6.25325L60.9654 8.4107C60.8766 8.49075 60.8322 8.53081 60.8041 8.57955C60.7792 8.62273 60.7636 8.67062 60.7584 8.72014C60.7525 8.77614 60.7649 8.83462 60.7897 8.95167L61.4584 12.1042C61.5423 12.5 61.5843 12.6979 61.525 12.8113C61.4734 12.9099 61.3787 12.9786 61.2691 12.9972C61.1429 13.0185 60.9676 12.9175 60.6171 12.7154L57.8255 11.1052C57.7219 11.0454 57.6701 11.0156 57.6151 11.0039C57.5663 10.9936 57.5159 10.9936 57.4672 11.0039C57.4121 11.0156 57.3603 11.0454 57.2567 11.1052L54.4651 12.7154C54.1146 12.9175 53.9394 13.0185 53.8132 12.9972C53.7035 12.9786 53.6089 12.9099 53.5573 12.8113C53.498 12.6979 53.54 12.5 53.6239 12.1042L54.2926 8.95167C54.3174 8.83462 54.3298 8.77614 54.3239 8.72014C54.3187 8.67062 54.3031 8.62273 54.2782 8.57955C54.2501 8.53081 54.2057 8.49075 54.1168 8.4107L51.7228 6.25325C51.4223 5.98238 51.272 5.84698 51.2533 5.72033C51.2371 5.6103 51.2733 5.49902 51.351 5.41955C51.4406 5.32805 51.6418 5.30682 52.0442 5.26436L55.249 4.9261C55.368 4.91355 55.4274 4.90727 55.4789 4.88436C55.5244 4.8641 55.5651 4.83449 55.5985 4.79748C55.6361 4.75565 55.6605 4.70103 55.7092 4.59178L57.0212 1.6483Z" fill="#008AEE" stroke="#008AEE" stroke-width="1.5" stroke-linecap="round" stroke-linejoin="round"/>
<path d="M73.6047 1.6483C73.7694 1.27875 73.8518 1.09398 73.9665 1.03708C74.0661 0.987641 74.1831 0.987641 74.2827 1.03708C74.3974 1.09398 74.4798 1.27875 74.6445 1.6483L75.9566 4.59178C76.0053 4.70103 76.0296 4.75565 76.0673 4.79748C76.1006 4.83449 76.1414 4.8641 76.1869 4.88436C76.2383 4.90727 76.2978 4.91355 76.4168 4.9261L79.6216 5.26436C80.024 5.30682 80.2251 5.32805 80.3147 5.41955C80.3925 5.49902 80.4286 5.6103 80.4124 5.72033C80.3938 5.84698 80.2435 5.98238 79.943 6.25325L77.5489 8.4107C77.4601 8.49075 77.4157 8.53081 77.3876 8.57955C77.3627 8.62273 77.3471 8.67062 77.3419 8.72014C77.336 8.77614 77.3484 8.83462 77.3732 8.95167L78.0419 12.1042C78.1258 12.5 78.1678 12.6979 78.1085 12.8113C78.0569 12.9099 77.9622 12.9786 77.8526 12.9972C77.7264 13.0185 77.5511 12.9175 77.2006 12.7154L74.409 11.1052C74.3054 11.0454 74.2536 11.0156 74.1986 11.0039C74.1498 10.9936 74.0994 10.9936 74.0507 11.0039C73.9956 11.0156 73.9438 11.0454 73.8402 11.1052L71.0486 12.7154C70.6981 12.9175 70.5229 13.0185 70.3967 12.9972C70.287 12.9786 70.1924 12.9099 70.1408 12.8113C70.0815 12.6979 70.1235 12.5 70.2074 12.1042L70.8761 8.95167C70.9009 8.83462 70.9133 8.77614 70.9074 8.72014C70.9022 8.67062 70.8866 8.62273 70.8617 8.57955C70.8336 8.53081 70.7892 8.49075 70.7003 8.4107L68.3063 6.25325C68.0058 5.98238 67.8555 5.84698 67.8368 5.72033C67.8206 5.6103 67.8567 5.49902 67.9345 5.41955C68.0241 5.32805 68.2253 5.30682 68.6277 5.26436L71.8325 4.9261C71.9515 4.91355 72.0109 4.90727 72.0624 4.88436C72.1079 4.8641 72.1486 4.83449 72.1819 4.79748C72.2196 4.75565 72.244 4.70103 72.2927 4.59178L73.6047 1.6483Z" fill="#008AEE" stroke="#008AEE" stroke-width="1.5" stroke-linecap="round" stroke-linejoin="round"/>
</svg>
