<svg width="60" height="11" viewBox="0 0 60 11" fill="none" xmlns="http://www.w3.org/2000/svg">
<path d="M4.98892 2.09589C5.09873 1.84953 5.15366 1.72635 5.23013 1.68841C5.29653 1.65546 5.37452 1.65546 5.44092 1.68841C5.51739 1.72635 5.57232 1.84953 5.68213 2.09589L6.55681 4.05822C6.58931 4.13105 6.60553 4.16746 6.63067 4.19535C6.65287 4.22002 6.68005 4.23976 6.71036 4.25327C6.74465 4.26854 6.78431 4.27273 6.86362 4.2811L9.0002 4.5066C9.26844 4.53491 9.40254 4.54907 9.46226 4.61006C9.5141 4.66304 9.5382 4.73723 9.52738 4.81058C9.51496 4.89501 9.41478 4.98528 9.21441 5.16586L7.61839 6.60416C7.5592 6.65753 7.52955 6.68423 7.51081 6.71673C7.49421 6.74552 7.48382 6.77744 7.48036 6.81046C7.47642 6.84779 7.48468 6.88678 7.50123 6.96481L7.94702 9.06648C8.00299 9.33035 8.03098 9.46227 7.99142 9.53788C7.95703 9.60362 7.89394 9.64944 7.82084 9.66182C7.73669 9.67605 7.61986 9.6087 7.3862 9.47394L5.52512 8.4005C5.45605 8.36066 5.42152 8.34078 5.38481 8.33295C5.35232 8.32608 5.31873 8.32608 5.28624 8.33295C5.24953 8.34078 5.21499 8.36066 5.14593 8.4005L3.28485 9.47394C3.0512 9.6087 2.93438 9.67605 2.85022 9.66182C2.77712 9.64944 2.71402 9.60362 2.67966 9.53788C2.6401 9.46227 2.66808 9.33035 2.72405 9.06648L3.16982 6.96481C3.18636 6.88678 3.19463 6.84779 3.19071 6.81046C3.18723 6.77744 3.17686 6.74552 3.16025 6.71673C3.14149 6.68423 3.11188 6.65753 3.05265 6.60416L1.45666 5.16586C1.25629 4.98528 1.15611 4.89501 1.14365 4.81058C1.13284 4.73723 1.15694 4.66304 1.2088 4.61006C1.26851 4.54907 1.40263 4.53491 1.67088 4.5066L3.80745 4.2811C3.88675 4.27273 3.9264 4.26854 3.96068 4.25327C3.99102 4.23976 4.01818 4.22002 4.04041 4.19535C4.06552 4.16746 4.08176 4.13105 4.11422 4.05822L4.98892 2.09589Z" fill="#008AEE" stroke="#008AEE" stroke-width="1.5" stroke-linecap="round" stroke-linejoin="round"/>
<path d="M17.3776 2.09589C17.4874 1.84953 17.5423 1.72635 17.6188 1.68841C17.6852 1.65546 17.7632 1.65546 17.8296 1.68841C17.9061 1.72635 17.961 1.84953 18.0708 2.09589L18.9455 4.05822C18.978 4.13105 18.9942 4.16746 19.0193 4.19535C19.0415 4.22002 19.0687 4.23976 19.099 4.25327C19.1333 4.26854 19.173 4.27273 19.2523 4.2811L21.3889 4.5066C21.6571 4.53491 21.7912 4.54907 21.8509 4.61006C21.9028 4.66304 21.9269 4.73723 21.9161 4.81058C21.9036 4.89501 21.8034 4.98528 21.6031 5.16586L20.0071 6.60416C19.9479 6.65753 19.9182 6.68423 19.8995 6.71673C19.8829 6.74552 19.8725 6.77744 19.869 6.81046C19.8651 6.84779 19.8733 6.88678 19.8899 6.96481L20.3357 9.06648C20.3917 9.33035 20.4196 9.46227 20.3801 9.53788C20.3457 9.60362 20.2826 9.64944 20.2095 9.66182C20.1254 9.67605 20.0085 9.6087 19.7749 9.47394L17.9138 8.4005C17.8447 8.36066 17.8102 8.34078 17.7735 8.33295C17.741 8.32608 17.7074 8.32608 17.6749 8.33295C17.6382 8.34078 17.6037 8.36066 17.5346 8.4005L15.6735 9.47394C15.4399 9.6087 15.323 9.67605 15.2389 9.66182C15.1658 9.64944 15.1027 9.60362 15.0683 9.53788C15.0288 9.46227 15.0568 9.33035 15.1127 9.06648L15.5585 6.96481C15.575 6.88678 15.5833 6.84779 15.5794 6.81046C15.5759 6.77744 15.5655 6.74552 15.5489 6.71673C15.5302 6.68423 15.5005 6.65753 15.4413 6.60416L13.8453 5.16586C13.645 4.98528 13.5448 4.89501 13.5323 4.81058C13.5215 4.73723 13.5456 4.66304 13.5975 4.61006C13.6572 4.54907 13.7913 4.53491 14.0595 4.5066L16.1961 4.2811C16.2754 4.27273 16.3151 4.26854 16.3494 4.25327C16.3797 4.23976 16.4069 4.22002 16.4291 4.19535C16.4542 4.16746 16.4704 4.13105 16.5029 4.05822L17.3776 2.09589Z" fill="#008AEE" stroke="#008AEE" stroke-width="1.5" stroke-linecap="round" stroke-linejoin="round"/>
<path d="M29.7668 2.09589C29.8766 1.84953 29.9315 1.72635 30.008 1.68841C30.0744 1.65546 30.1523 1.65546 30.2188 1.68841C30.2952 1.72635 30.3501 1.84953 30.46 2.09589L31.3346 4.05822C31.3671 4.13105 31.3834 4.16746 31.4085 4.19535C31.4307 4.22002 31.4579 4.23976 31.4882 4.25327C31.5225 4.26854 31.5621 4.27273 31.6415 4.2811L33.778 4.5066C34.0463 4.53491 34.1804 4.54907 34.2401 4.61006C34.2919 4.66304 34.316 4.73723 34.3052 4.81058C34.2928 4.89501 34.1926 4.98528 33.9922 5.16586L32.3962 6.60416C32.337 6.65753 32.3074 6.68423 32.2886 6.71673C32.272 6.74552 32.2617 6.77744 32.2582 6.81046C32.2543 6.84779 32.2625 6.88678 32.2791 6.96481L32.7248 9.06648C32.7808 9.33035 32.8088 9.46227 32.7692 9.53788C32.7349 9.60362 32.6718 9.64944 32.5987 9.66182C32.5145 9.67605 32.3977 9.6087 32.164 9.47394L30.303 8.4005C30.2339 8.36066 30.1994 8.34078 30.1626 8.33295C30.1301 8.32608 30.0966 8.32608 30.0641 8.33295C30.0274 8.34078 29.9928 8.36066 29.9238 8.4005L28.0627 9.47394C27.829 9.6087 27.7122 9.67605 27.6281 9.66182C27.555 9.64944 27.4918 9.60362 27.4575 9.53788C27.4179 9.46227 27.4459 9.33035 27.5019 9.06648L27.9476 6.96481C27.9642 6.88678 27.9725 6.84779 27.9685 6.81046C27.9651 6.77744 27.9547 6.74552 27.9381 6.71673C27.9193 6.68423 27.8897 6.65753 27.8305 6.60416L26.2345 5.16586C26.0341 4.98528 25.9339 4.89501 25.9215 4.81058C25.9107 4.73723 25.9348 4.66304 25.9866 4.61006C26.0463 4.54907 26.1805 4.53491 26.4487 4.5066L28.5853 4.2811C28.6646 4.27273 28.7042 4.26854 28.7385 4.25327C28.7689 4.23976 28.796 4.22002 28.8182 4.19535C28.8434 4.16746 28.8596 4.13105 28.8921 4.05822L29.7668 2.09589Z" fill="#008AEE" stroke="#008AEE" stroke-width="1.5" stroke-linecap="round" stroke-linejoin="round"/>
<path d="M42.1554 2.09589C42.2652 1.84953 42.3202 1.72635 42.3966 1.68841C42.463 1.65546 42.541 1.65546 42.6074 1.68841C42.6839 1.72635 42.7388 1.84953 42.8486 2.09589L43.7233 4.05822C43.7558 4.13105 43.772 4.16746 43.7972 4.19535C43.8194 4.22002 43.8466 4.23976 43.8769 4.25327C43.9112 4.26854 43.9508 4.27273 44.0301 4.2811L46.1667 4.5066C46.4349 4.53491 46.569 4.54907 46.6288 4.61006C46.6806 4.66304 46.7047 4.73723 46.6939 4.81058C46.6815 4.89501 46.5813 4.98528 46.3809 5.16586L44.7849 6.60416C44.7257 6.65753 44.6961 6.68423 44.6773 6.71673C44.6607 6.74552 44.6503 6.77744 44.6469 6.81046C44.6429 6.84779 44.6512 6.88678 44.6677 6.96481L45.1135 9.06648C45.1695 9.33035 45.1975 9.46227 45.1579 9.53788C45.1235 9.60362 45.0604 9.64944 44.9873 9.66182C44.9032 9.67605 44.7864 9.6087 44.5527 9.47394L42.6916 8.4005C42.6226 8.36066 42.588 8.34078 42.5513 8.33295C42.5188 8.32608 42.4852 8.32608 42.4527 8.33295C42.416 8.34078 42.3815 8.36066 42.3124 8.4005L40.4514 9.47394C40.2177 9.6087 40.1009 9.67605 40.0167 9.66182C39.9436 9.64944 39.8805 9.60362 39.8462 9.53788C39.8066 9.46227 39.8346 9.33035 39.8906 9.06648L40.3363 6.96481C40.3529 6.88678 40.3611 6.84779 40.3572 6.81046C40.3537 6.77744 40.3434 6.74552 40.3268 6.71673C40.308 6.68423 40.2784 6.65753 40.2191 6.60416L38.6232 5.16586C38.4228 4.98528 38.3226 4.89501 38.3102 4.81058C38.2993 4.73723 38.3234 4.66304 38.3753 4.61006C38.435 4.54907 38.5691 4.53491 38.8374 4.5066L40.974 4.2811C41.0533 4.27273 41.0929 4.26854 41.1272 4.25327C41.1575 4.23976 41.1847 4.22002 41.2069 4.19535C41.232 4.16746 41.2483 4.13105 41.2807 4.05822L42.1554 2.09589Z" fill="#008AEE" stroke="#008AEE" stroke-width="1.5" stroke-linecap="round" stroke-linejoin="round"/>
<path d="M54.5441 2.09589C54.6539 1.84953 54.7088 1.72635 54.7853 1.68841C54.8517 1.65546 54.9297 1.65546 54.9961 1.68841C55.0726 1.72635 55.1275 1.84953 55.2373 2.09589L56.112 4.05822C56.1445 4.13105 56.1607 4.16746 56.1858 4.19535C56.208 4.22002 56.2352 4.23976 56.2655 4.25327C56.2998 4.26854 56.3395 4.27273 56.4188 4.2811L58.5554 4.5066C58.8236 4.53491 58.9577 4.54907 59.0174 4.61006C59.0693 4.66304 59.0934 4.73723 59.0826 4.81058C59.0701 4.89501 58.97 4.98528 58.7696 5.16586L57.1736 6.60416C57.1144 6.65753 57.0847 6.68423 57.066 6.71673C57.0494 6.74552 57.039 6.77744 57.0355 6.81046C57.0316 6.84779 57.0399 6.88678 57.0564 6.96481L57.5022 9.06648C57.5582 9.33035 57.5862 9.46227 57.5466 9.53788C57.5122 9.60362 57.4491 9.64944 57.376 9.66182C57.2919 9.67605 57.175 9.6087 56.9414 9.47394L55.0803 8.4005C55.0112 8.36066 54.9767 8.34078 54.94 8.33295C54.9075 8.32608 54.8739 8.32608 54.8414 8.33295C54.8047 8.34078 54.7702 8.36066 54.7011 8.4005L52.84 9.47394C52.6064 9.6087 52.4896 9.67605 52.4054 9.66182C52.3323 9.64944 52.2692 9.60362 52.2348 9.53788C52.1953 9.46227 52.2233 9.33035 52.2792 9.06648L52.725 6.96481C52.7415 6.88678 52.7498 6.84779 52.7459 6.81046C52.7424 6.77744 52.732 6.74552 52.7154 6.71673C52.6967 6.68423 52.6671 6.65753 52.6078 6.60416L51.0118 5.16586C50.8115 4.98528 50.7113 4.89501 50.6988 4.81058C50.688 4.73723 50.7121 4.66304 50.764 4.61006C50.8237 4.54907 50.9578 4.53491 51.2261 4.5066L53.3626 4.2811C53.4419 4.27273 53.4816 4.26854 53.5159 4.25327C53.5462 4.23976 53.5734 4.22002 53.5956 4.19535C53.6207 4.16746 53.6369 4.13105 53.6694 4.05822L54.5441 2.09589Z" fill="#008AEE" stroke="#008AEE" stroke-width="1.5" stroke-linecap="round" stroke-linejoin="round"/>
</svg>
